<svg width="24" height="24" viewBox="0 0 24 24" fill="none" xmlns="http://www.w3.org/2000/svg">
<g clip-path="url(#clip0_9_168)">
<path d="M15.861 4.17188H3.93698C1.76616 4.17188 0 5.93803 0 8.10895V20.033C0 22.2038 1.76616 23.97 3.93698 23.97H15.861C18.0319 23.97 19.798 22.2038 19.798 20.033V8.10895C19.798 5.93803 18.0319 4.17188 15.861 4.17188ZM18.3932 20.0329C18.3932 21.4292 17.2573 22.5652 15.861 22.5652H3.93698C2.54077 22.5651 1.4048 21.4292 1.4048 20.0329V8.10895C1.4048 6.71269 2.54077 5.57672 3.93698 5.57672H15.861C17.2573 5.57672 18.3932 6.71269 18.3932 8.10895V20.0329Z" fill="#342F38"/>
<path d="M8.10994 13.9022C8.67722 13.6359 9.01299 12.895 9.01299 11.9803C9.01299 10.4405 7.971 9.90796 6.5701 9.90796C4.61349 9.90796 4.03458 11.1004 4.03458 11.9225C4.03458 12.4088 4.13883 12.5708 4.81027 12.5708C5.36597 12.5708 5.52806 12.3393 5.52806 11.9919C5.52806 11.5288 5.80594 11.2162 6.55852 11.2162C7.18374 11.2162 7.57734 11.4709 7.57734 12.2351C7.57734 13.2307 7.09106 13.3697 6.5122 13.3697C6.17644 13.3697 6.06066 13.6707 6.06066 13.9601C6.06066 14.2611 6.17649 14.5506 6.5122 14.5506C7.25316 14.5506 7.78575 14.7937 7.78575 15.6504V15.8704C7.78575 16.7503 7.41525 17.1208 6.54694 17.1208C5.80599 17.1208 5.34291 16.7966 5.34291 16.2756C5.34291 15.9051 5.18081 15.743 4.56722 15.743C4.0462 15.743 3.84938 15.8704 3.84938 16.3334C3.84938 17.2712 4.61353 18.4406 6.51225 18.4406C8.04052 18.4406 9.29086 17.7343 9.29086 15.8704V15.6504C9.29077 14.6895 8.79295 14.1685 8.10994 13.9022Z" fill="#342F38"/>
<path d="M13.0535 9.90796H11.0042C10.6106 9.90796 10.3443 10.1279 10.3443 10.371V17.9081C10.3443 18.1512 10.6106 18.3712 11.0042 18.3712H13.0535C14.5817 18.3712 15.7743 17.6533 15.7743 15.7199V12.5592C15.7742 10.6258 14.5818 9.90796 13.0535 9.90796ZM14.2692 15.7199C14.2692 16.623 13.8176 17.0513 13.0535 17.0513H11.8494V11.2278H13.0535C13.8176 11.2278 14.2692 11.6562 14.2692 12.5592V15.7199Z" fill="#342F38"/>
<path d="M16.979 0.0297852H7.32516C6.93722 0.0297852 6.62273 0.34427 6.62273 0.732207C6.62273 1.12014 6.93722 1.43463 7.32516 1.43463H16.979C20.0757 1.43463 22.5952 3.95402 22.5952 7.05077V16.7046C22.5952 17.0926 22.9096 17.4071 23.2976 17.4071C23.6855 17.4071 24 17.0926 24 16.7046V7.05077C24 3.17941 20.8504 0.0297852 16.979 0.0297852Z" fill="#342F38"/>
</g>
<defs>
<clipPath id="clip0_9_168">
<rect width="24" height="24" fill="white"/>
</clipPath>
</defs>
</svg>
