<svg width="25" height="24" viewBox="0 0 25 24" fill="none" xmlns="http://www.w3.org/2000/svg">
<g clip-path="url(#clip0_3_133)">
<path d="M16.361 4.17188H4.43698C2.26616 4.17188 0.5 5.93803 0.5 8.10895V20.033C0.5 22.2038 2.26616 23.97 4.43698 23.97H16.361C18.5319 23.97 20.298 22.2038 20.298 20.033V8.10895C20.298 5.93803 18.5319 4.17188 16.361 4.17188ZM18.8932 20.0329C18.8932 21.4292 17.7573 22.5652 16.361 22.5652H4.43698C3.04077 22.5651 1.9048 21.4292 1.9048 20.0329V8.10895C1.9048 6.71269 3.04077 5.57672 4.43698 5.57672H16.361C17.7573 5.57672 18.8932 6.71269 18.8932 8.10895V20.0329Z" fill="white"/>
<path d="M8.60993 13.902C9.17721 13.6357 9.51297 12.8947 9.51297 11.9801C9.51297 10.4403 8.47099 9.90771 7.07008 9.90771C5.11347 9.90771 4.53457 11.1002 4.53457 11.9223C4.53457 12.4085 4.63882 12.5706 5.31026 12.5706C5.86596 12.5706 6.02805 12.339 6.02805 11.9917C6.02805 11.5286 6.30593 11.216 7.05851 11.216C7.68372 11.216 8.07733 11.4707 8.07733 12.2348C8.07733 13.2305 7.59105 13.3694 7.01219 13.3694C6.67643 13.3694 6.56065 13.6705 6.56065 13.9599C6.56065 14.2609 6.67647 14.5503 7.01219 14.5503C7.75315 14.5503 8.28574 14.7934 8.28574 15.6501V15.8701C8.28574 16.75 7.91524 17.1205 7.04693 17.1205C6.30597 17.1205 5.8429 16.7963 5.8429 16.2754C5.8429 15.9049 5.6808 15.7428 5.06721 15.7428C4.54619 15.7428 4.34937 15.8701 4.34937 16.3332C4.34937 17.271 5.11352 18.4404 7.01224 18.4404C8.54051 18.4404 9.79085 17.7341 9.79085 15.8701V15.6501C9.79076 14.6892 9.29294 14.1682 8.60993 13.902Z" fill="white"/>
<path d="M13.5535 9.90771H11.5042C11.1106 9.90771 10.8443 10.1277 10.8443 10.3708V17.9078C10.8443 18.151 11.1106 18.3709 11.5042 18.3709H13.5535C15.0817 18.3709 16.2743 17.6531 16.2743 15.7197V12.559C16.2742 10.6256 15.0818 9.90771 13.5535 9.90771ZM14.7692 15.7197C14.7692 16.6227 14.3176 17.0511 13.5535 17.0511H12.3494V11.2276H13.5535C14.3176 11.2276 14.7692 11.656 14.7692 12.559V15.7197Z" fill="white"/>
<path d="M17.479 0.0297852H7.82516C7.43723 0.0297852 7.12274 0.34427 7.12274 0.732207C7.12274 1.12014 7.43723 1.43463 7.82516 1.43463H17.479C20.5757 1.43463 23.0952 3.95402 23.0952 7.05077V16.7046C23.0952 17.0926 23.4096 17.4071 23.7976 17.4071C24.1855 17.4071 24.5 17.0926 24.5 16.7046V7.05077C24.5 3.17941 21.3504 0.0297852 17.479 0.0297852Z" fill="white"/>
</g>
<defs>
<clipPath id="clip0_3_133">
<rect width="24" height="24" fill="white" transform="translate(0.5)"/>
</clipPath>
</defs>
</svg>
