<svg width="24" height="24" viewBox="0 0 24 24" fill="none" xmlns="http://www.w3.org/2000/svg">
<g clip-path="url(#clip0_14_64)">
<path d="M3.375 23.625V20.97C4.7175 20.7862 5.625 19.62 5.625 18C5.625 16.32 4.60125 13.875 3 13.875C1.39875 13.875 0.375 16.32 0.375 18C0.375 19.62 1.2825 20.7862 2.625 20.97V23.625H3.375ZM1.125 18C1.125 16.5262 2.0325 14.625 3 14.625C3.9675 14.625 4.875 16.5262 4.875 18C4.875 19.1888 4.28625 20.0325 3.375 20.2125V19.2488L4.425 17.85L3.825 17.4L3 18.4988L2.175 17.4L1.575 17.85L2.625 19.2488V20.2125C1.71375 20.0325 1.125 19.1888 1.125 18Z" fill="white"/>
<path d="M1.2975 1.22227C1.40147 1.35194 1.48378 1.49757 1.54125 1.65352C1.64625 1.90102 1.7925 2.24977 2.15625 2.24977C2.52 2.24977 2.66625 1.90852 2.77125 1.66102C2.82337 1.5034 2.90062 1.35525 3 1.22227C3.06 1.16227 3.22125 1.00477 3.75 1.28977L4.125 0.62977C3.2775 0.17227 2.76375 0.41227 2.4825 0.69352C2.34696 0.840615 2.23671 1.00915 2.15625 1.19227C2.07579 1.00915 1.96554 0.840615 1.83 0.69352C1.54875 0.41227 1.035 0.17227 0.195 0.62977L0.57 1.28977C1.07625 1.00477 1.2375 1.16227 1.2975 1.22227Z" fill="white"/>
<path d="M4.125 3.92233C4.64625 3.63733 4.8075 3.79858 4.875 3.85858C4.97975 3.98633 5.06216 4.13087 5.11875 4.28608C5.22375 4.53358 5.37 4.87483 5.73375 4.87483C6.0975 4.87483 6.24375 4.53358 6.34875 4.28608C6.40533 4.13087 6.48774 3.98633 6.5925 3.85858C6.6525 3.79858 6.81375 3.63733 7.3425 3.92233L7.7175 3.26233C6.8775 2.80483 6.36375 3.04483 6.0825 3.32983C5.94533 3.47566 5.8349 3.64448 5.75625 3.82858C5.6776 3.64448 5.56717 3.47566 5.43 3.32983C5.14875 3.04483 4.635 2.80483 3.795 3.26233L4.125 3.92233Z" fill="white"/>
<path d="M17.625 11.625H12.375C12.2755 11.625 12.1802 11.6645 12.1098 11.7348C12.0395 11.8052 12 11.9005 12 12V13.5C12 13.5995 12.0395 13.6948 12.1098 13.7652C12.1802 13.8355 12.2755 13.875 12.375 13.875H17.625C17.7245 13.875 17.8198 13.8355 17.8902 13.7652C17.9605 13.6948 18 13.5995 18 13.5V12C18 11.9005 17.9605 11.8052 17.8902 11.7348C17.8198 11.6645 17.7245 11.625 17.625 11.625ZM17.25 13.125H12.75V12.375H17.25V13.125Z" fill="white"/>
<path d="M19.125 7.40625V5.625C19.2245 5.625 19.3198 5.58549 19.3902 5.51516C19.4605 5.44484 19.5 5.34946 19.5 5.25V4.125C19.5 4.02554 19.4605 3.93016 19.3902 3.85984C19.3198 3.78951 19.2245 3.75 19.125 3.75H15C14.9005 3.75 14.8052 3.78951 14.7348 3.85984C14.6645 3.93016 14.625 4.02554 14.625 4.125V5.25C14.625 5.34946 14.6645 5.44484 14.7348 5.51516C14.8052 5.58549 14.9005 5.625 15 5.625V7.125H12.75C11.0592 7.125 9.43774 7.79665 8.24219 8.99219C7.04665 10.1877 6.375 11.8092 6.375 13.5V15C6.375 15.0995 6.41451 15.1948 6.48483 15.2652C6.55516 15.3355 6.65054 15.375 6.75 15.375H7.875V23.25C7.875 23.3495 7.91451 23.4448 7.98483 23.5152C8.05516 23.5855 8.15054 23.625 8.25 23.625H21.75C21.8495 23.625 21.9448 23.5855 22.0152 23.5152C22.0855 23.4448 22.125 23.3495 22.125 23.25V15.375H23.25C23.3495 15.375 23.4448 15.3355 23.5152 15.2652C23.5855 15.1948 23.625 15.0995 23.625 15V13.5C23.6252 12.1366 23.1882 10.809 22.3783 9.71225C21.5683 8.61548 20.4281 7.80725 19.125 7.40625ZM15.375 4.5H18.75V4.875H15.375V4.5ZM15.75 5.625H18.375V7.23C18.0037 7.16259 17.6273 7.12746 17.25 7.125H15.75V5.625ZM17.625 22.875H15.375V17.625H17.625V22.875ZM14.625 22.875H12.375V17.625H14.625V22.875ZM21.375 22.875H18.375V17.25C18.375 17.1505 18.3355 17.0552 18.2652 16.9848C18.1948 16.9145 18.0995 16.875 18 16.875H12C11.9005 16.875 11.8052 16.9145 11.7348 16.9848C11.6645 17.0552 11.625 17.1505 11.625 17.25V22.875H8.625V14.25C8.625 13.156 9.0596 12.1068 9.83318 11.3332C10.6068 10.5596 11.656 10.125 12.75 10.125H17.25C18.344 10.125 19.3932 10.5596 20.1668 11.3332C20.9404 12.1068 21.375 13.156 21.375 14.25V22.875ZM22.875 14.625H22.125V14.25C22.125 12.9571 21.6114 11.7171 20.6971 10.8029C19.7829 9.88861 18.5429 9.375 17.25 9.375H12.75C11.4571 9.375 10.2171 9.88861 9.30285 10.8029C8.38861 11.7171 7.875 12.9571 7.875 14.25V14.625H7.125V13.5C7.125 12.0082 7.71763 10.5774 8.77252 9.52252C9.82742 8.46763 11.2582 7.875 12.75 7.875H17.25C18.7418 7.875 20.1726 8.46763 21.2275 9.52252C22.2824 10.5774 22.875 12.0082 22.875 13.5V14.625Z" fill="white"/>
</g>
<defs>
<clipPath id="clip0_14_64">
<rect width="24" height="24" fill="white"/>
</clipPath>
</defs>
</svg>
