<svg width="25" height="24" viewBox="0 0 25 24" fill="none" xmlns="http://www.w3.org/2000/svg">
<path d="M14.3724 2.4047C14.3724 2.11495 14.6072 1.8801 14.897 1.8801H15.0219C15.3116 1.8801 15.5465 2.11495 15.5465 2.4047C15.5465 2.69446 15.3116 2.9293 15.0219 2.9293H14.897C14.6073 2.9293 14.3724 2.69446 14.3724 2.4047ZM15.0963 14.5997C15.0963 14.8894 15.3311 15.1243 15.6209 15.1243H15.7458C16.0355 15.1243 16.2704 14.8894 16.2704 14.5997C16.2704 14.3099 16.0355 14.0751 15.7458 14.0751H15.6209C15.3312 14.0751 15.0963 14.3099 15.0963 14.5997ZM15.6834 12.1949C17.0092 12.1949 18.088 13.2737 18.088 14.5997C18.088 15.7454 17.2824 16.7067 16.208 16.9467V18.5397C16.208 18.8294 15.9731 19.0643 15.6834 19.0643C15.3936 19.0643 15.1588 18.8294 15.1588 18.5397V16.9467C14.0842 16.7067 13.2786 15.7455 13.2786 14.5997C13.2786 13.2737 14.3573 12.1949 15.6834 12.1949ZM15.6834 13.2441C14.9359 13.2441 14.3278 13.8523 14.3278 14.5997C14.3278 15.347 14.9359 15.9552 15.6834 15.9552C16.4307 15.9552 17.0388 15.347 17.0388 14.5997C17.0388 13.8523 16.4307 13.2441 15.6834 13.2441ZM7.2344 7.62044C7.2344 6.29449 8.3132 5.21574 9.63921 5.21574C10.9652 5.21574 12.044 6.29449 12.044 7.62044C12.044 8.76622 11.2384 9.72747 10.1638 9.96756V11.5605C10.1638 11.8502 9.92897 12.0851 9.63921 12.0851C9.34946 12.0851 9.11462 11.8502 9.11462 11.5605V9.96756C8.04012 9.72752 7.2344 8.76628 7.2344 7.62044ZM8.28359 7.62044C8.28359 8.36788 8.89172 8.97595 9.63921 8.97595C10.3867 8.97595 10.9948 8.36788 10.9948 7.62044C10.9948 6.87301 10.3867 6.26494 9.63921 6.26494C8.89172 6.26494 8.28359 6.87301 8.28359 7.62044ZM12.5547 2.4047C12.5547 1.07875 13.6335 0 14.9594 0C16.2854 0 17.3642 1.07875 17.3642 2.4047C17.3642 3.55049 16.5586 4.51173 15.484 4.75182V6.34473C15.484 6.63449 15.2492 6.86933 14.9594 6.86933C14.6697 6.86933 14.4348 6.63449 14.4348 6.34473V4.75176C13.3603 4.51173 12.5547 3.55049 12.5547 2.4047ZM13.6039 2.4047C13.6039 3.15214 14.212 3.76021 14.9594 3.76021C15.7068 3.76021 16.315 3.15214 16.315 2.4047C16.315 1.65727 15.7068 1.0492 14.9594 1.0492C14.212 1.0492 13.6039 1.65727 13.6039 2.4047ZM21.4268 9.06799L20.5485 8.75008L19.8249 3.79524C19.7389 3.20524 19.412 2.71655 18.9046 2.41922C18.6545 2.27262 18.3332 2.35679 18.1868 2.60667C18.0403 2.85662 18.1242 3.17802 18.3742 3.32444C18.611 3.46323 18.7459 3.66671 18.7868 3.94679L19.5558 9.21237C19.5837 9.40361 19.7145 9.56402 19.8963 9.62983L21.0698 10.0546C21.8741 10.3457 21.9534 10.5465 21.9326 10.6889L20.6702 19.3329C20.6109 19.7393 20.3431 19.9971 19.8741 20.0994L11.9172 21.8352C11.8464 21.8506 11.7914 21.8389 11.7266 21.7951C11.5537 21.678 11.3961 21.3749 11.3432 21.0582L11.3009 20.8041C11.2753 20.6504 11.1827 20.5161 11.0482 20.4375C10.9136 20.3587 10.7513 20.3441 10.6048 20.3971L3.57444 22.9416C3.47436 22.978 3.34828 22.8821 3.31197 22.8519C3.14491 22.7127 3.03964 22.4832 3.06721 22.318L5.50479 7.71878C5.56413 7.3631 5.75806 7.02566 5.94627 6.95053C6.21539 6.84316 6.34642 6.53796 6.239 6.2689C6.13157 5.99978 5.82631 5.86846 5.55737 5.97617C4.90523 6.23643 4.56797 6.95787 4.46993 7.54612L2.03235 22.1453C1.94276 22.682 2.18157 23.2758 2.64066 23.6581C2.91106 23.8833 3.21859 24 3.52391 24C3.66141 24 3.79856 23.9763 3.93158 23.9282L10.394 21.5891C10.5393 22.0499 10.8046 22.4379 11.1382 22.6638C11.4416 22.8693 11.7883 22.9372 12.1407 22.8603L20.0976 21.1246C20.9977 20.9282 21.5849 20.3304 21.7083 19.4845L22.9707 10.8405C23.1391 9.68783 21.8951 9.23755 21.4268 9.06799ZM9.57696 8.14504H9.70176C9.99151 8.14504 10.2264 7.9102 10.2264 7.62044C10.2264 7.33069 9.99151 7.09584 9.70176 7.09584H9.57696C9.28721 7.09584 9.05236 7.33069 9.05236 7.62044C9.05236 7.9102 9.28721 8.14504 9.57696 8.14504ZM8.58961 4.24774C8.61887 4.25263 8.64796 4.25496 8.67663 4.25496C8.92838 4.25496 9.15064 4.07322 9.19342 3.81669L9.45974 2.22162C9.51267 1.9047 9.67028 1.60166 9.84317 1.48456C9.90804 1.44072 9.9633 1.42907 10.0338 1.44445L11.3333 1.72791C11.6164 1.78987 11.8959 1.61023 11.9576 1.32718C12.0194 1.04413 11.8399 0.764632 11.5569 0.702846L10.2575 0.419388C9.90507 0.342563 9.55831 0.410411 9.25492 0.615879C8.83786 0.898288 8.52753 1.43396 8.42494 2.04879L8.15862 3.64387C8.11088 3.92966 8.30382 4.20006 8.58961 4.24774Z" fill="white"/>
</svg>
