<svg width="24" height="24" viewBox="0 0 24 24" fill="none" xmlns="http://www.w3.org/2000/svg">
<path d="M13.8724 2.4047C13.8724 2.11495 14.1072 1.8801 14.397 1.8801H14.5219C14.8116 1.8801 15.0465 2.11495 15.0465 2.4047C15.0465 2.69446 14.8116 2.9293 14.5219 2.9293H14.397C14.1073 2.9293 13.8724 2.69446 13.8724 2.4047ZM14.5963 14.5997C14.5963 14.8894 14.8311 15.1243 15.1209 15.1243H15.2458C15.5355 15.1243 15.7704 14.8894 15.7704 14.5997C15.7704 14.3099 15.5355 14.0751 15.2458 14.0751H15.1209C14.8312 14.0751 14.5963 14.3099 14.5963 14.5997ZM15.1833 12.1949C16.5092 12.1949 17.588 13.2737 17.588 14.5997C17.588 15.7454 16.7824 16.7067 15.7079 16.9467V18.5397C15.7079 18.8294 15.4731 19.0643 15.1833 19.0643C14.8936 19.0643 14.6587 18.8294 14.6587 18.5397V16.9467C13.5842 16.7067 12.7786 15.7455 12.7786 14.5997C12.7786 13.2737 13.8573 12.1949 15.1833 12.1949ZM15.1833 13.2441C14.4359 13.2441 13.8278 13.8523 13.8278 14.5997C13.8278 15.347 14.4359 15.9552 15.1833 15.9552C15.9307 15.9552 16.5388 15.347 16.5388 14.5997C16.5388 13.8523 15.9307 13.2441 15.1833 13.2441ZM6.73439 7.62044C6.73439 6.29449 7.8132 5.21574 9.13921 5.21574C10.4652 5.21574 11.544 6.29449 11.544 7.62044C11.544 8.76622 10.7384 9.72747 9.66381 9.96756V11.5605C9.66381 11.8502 9.42896 12.0851 9.13921 12.0851C8.84946 12.0851 8.61461 11.8502 8.61461 11.5605V9.96756C7.54012 9.72752 6.73439 8.76628 6.73439 7.62044ZM7.78359 7.62044C7.78359 8.36788 8.39171 8.97595 9.13921 8.97595C9.88665 8.97595 10.4948 8.36788 10.4948 7.62044C10.4948 6.87301 9.88665 6.26494 9.13921 6.26494C8.39171 6.26494 7.78359 6.87301 7.78359 7.62044ZM12.0547 2.4047C12.0547 1.07875 13.1334 0 14.4594 0C15.7854 0 16.8642 1.07875 16.8642 2.4047C16.8642 3.55049 16.0586 4.51173 14.984 4.75182V6.34473C14.984 6.63449 14.7492 6.86933 14.4594 6.86933C14.1696 6.86933 13.9348 6.63449 13.9348 6.34473V4.75176C12.8603 4.51173 12.0547 3.55049 12.0547 2.4047ZM13.1039 2.4047C13.1039 3.15214 13.712 3.76021 14.4594 3.76021C15.2068 3.76021 15.815 3.15214 15.815 2.4047C15.815 1.65727 15.2068 1.0492 14.4594 1.0492C13.712 1.0492 13.1039 1.65727 13.1039 2.4047ZM20.9268 9.06799L20.0485 8.75008L19.3249 3.79524C19.2388 3.20524 18.912 2.71655 18.4046 2.41922C18.1545 2.27262 17.8332 2.35679 17.6868 2.60667C17.5403 2.85662 17.6242 3.17802 17.8742 3.32444C18.111 3.46323 18.2459 3.66671 18.2868 3.94679L19.0558 9.21237C19.0837 9.40361 19.2145 9.56402 19.3963 9.62983L20.5698 10.0546C21.3741 10.3457 21.4534 10.5465 21.4326 10.6889L20.1702 19.3329C20.1108 19.7393 19.8431 19.9971 19.3741 20.0994L11.4172 21.8352C11.3464 21.8506 11.2914 21.8389 11.2266 21.7951C11.0537 21.678 10.8961 21.3749 10.8432 21.0582L10.8008 20.8041C10.7753 20.6504 10.6827 20.5161 10.5482 20.4375C10.4136 20.3587 10.2513 20.3441 10.1048 20.3971L3.07444 22.9416C2.97435 22.978 2.84828 22.8821 2.81196 22.8519C2.64491 22.7127 2.53964 22.4832 2.56721 22.318L5.00479 7.71878C5.06412 7.3631 5.25805 7.02566 5.44626 6.95053C5.71538 6.84316 5.84642 6.53796 5.73899 6.2689C5.63157 5.99978 5.32631 5.86846 5.05736 5.97617C4.40523 6.23643 4.06797 6.95787 3.96993 7.54612L1.53235 22.1453C1.44276 22.682 1.68157 23.2758 2.14065 23.6581C2.41105 23.8833 2.71858 24 3.0239 24C3.1614 24 3.29856 23.9763 3.43157 23.9282L9.89399 21.5891C10.0393 22.0499 10.3046 22.4379 10.6382 22.6638C10.9416 22.8693 11.2883 22.9372 11.6407 22.8603L19.5976 21.1246C20.4977 20.9282 21.0849 20.3304 21.2083 19.4845L22.4707 10.8405C22.6391 9.68783 21.3951 9.23755 20.9268 9.06799ZM9.07696 8.14504H9.20175C9.49151 8.14504 9.72635 7.9102 9.72635 7.62044C9.72635 7.33069 9.49151 7.09584 9.20175 7.09584H9.07696C8.7872 7.09584 8.55236 7.33069 8.55236 7.62044C8.55236 7.9102 8.7872 8.14504 9.07696 8.14504ZM8.0896 4.24774C8.11886 4.25263 8.14795 4.25496 8.17663 4.25496C8.42838 4.25496 8.65063 4.07322 8.69342 3.81669L8.95974 2.22162C9.01266 1.9047 9.17028 1.60166 9.34316 1.48456C9.40804 1.44072 9.46329 1.42907 9.53382 1.44445L10.8333 1.72791C11.1164 1.78987 11.3959 1.61023 11.4576 1.32718C11.5194 1.04413 11.3399 0.764632 11.0569 0.702846L9.75748 0.419388C9.40506 0.342563 9.0583 0.410411 8.75491 0.615879C8.33786 0.898288 8.02753 1.43396 7.92494 2.04879L7.65862 3.64387C7.61088 3.92966 7.80381 4.20006 8.0896 4.24774Z" fill="#342F38"/>
</svg>
