<svg width="73" height="85" viewBox="0 0 73 85" fill="none" xmlns="http://www.w3.org/2000/svg">
<path d="M30.8375 1C53.5709 1 72 19.5802 72 42.5C72 65.4198 53.5709 84 30.8375 84C19.094 84 8.49922 79.042 1 71.0889" stroke="url(#paint0_linear_2006_102)"/>
<path d="M30.2929 67.7071C30.6834 68.0976 31.3166 68.0976 31.7071 67.7071L38.0711 61.3431C38.4616 60.9526 38.4616 60.3195 38.0711 59.9289C37.6805 59.5384 37.0474 59.5384 36.6569 59.9289L31 65.5858L25.3431 59.9289C24.9526 59.5384 24.3195 59.5384 23.9289 59.9289C23.5384 60.3195 23.5384 60.9526 23.9289 61.3431L30.2929 67.7071ZM32 67L32 20L30 20L30 67L32 67Z" fill="url(#paint1_linear_2006_102)"/>
<defs>
<linearGradient id="paint0_linear_2006_102" x1="18.3556" y1="1" x2="62.6585" y2="78.5181" gradientUnits="userSpaceOnUse">
<stop stop-color="#E3CE93"/>
<stop offset="1" stop-color="#F1DEA9"/>
</linearGradient>
<linearGradient id="paint1_linear_2006_102" x1="30.7556" y1="67" x2="28.226" y2="66.8899" gradientUnits="userSpaceOnUse">
<stop stop-color="#E3CE93"/>
<stop offset="1" stop-color="#F1DEA9"/>
</linearGradient>
</defs>
</svg>
