<svg width="24" height="24" viewBox="0 0 24 24" fill="none" xmlns="http://www.w3.org/2000/svg">
<g clip-path="url(#clip0_9_102)">
<path d="M23.73 9.17227L19.875 5.96227V3.37477C19.875 3.17586 19.796 2.98509 19.6553 2.84444C19.5147 2.70379 19.3239 2.62477 19.125 2.62477C18.9261 2.62477 18.7353 2.70379 18.5947 2.84444C18.454 2.98509 18.375 3.17586 18.375 3.37477V4.70977L13.44 0.59977C13.0357 0.26302 12.5262 0.0786133 12 0.0786133C11.4738 0.0786133 10.9643 0.26302 10.56 0.59977L0.270001 9.17227C0.116838 9.29957 0.02052 9.48251 0.00223521 9.68083C-0.0160496 9.87915 0.0451967 10.0766 0.172501 10.2298C0.299805 10.3829 0.482738 10.4793 0.681058 10.4975C0.879377 10.5158 1.07684 10.4546 1.23 10.3273L11.52 1.75102C11.6548 1.63877 11.8246 1.5773 12 1.5773C12.1754 1.5773 12.3452 1.63877 12.48 1.75102L21 8.84977V21.7498C21 21.9487 20.921 22.1394 20.7803 22.2801C20.6397 22.4208 20.4489 22.4998 20.25 22.4998H16.5V14.2498C16.5 13.653 16.2629 13.0807 15.841 12.6588C15.419 12.2368 14.8467 11.9998 14.25 11.9998H9.75C9.15326 11.9998 8.58097 12.2368 8.15901 12.6588C7.73705 13.0807 7.5 13.653 7.5 14.2498V22.4998H3.75C3.55109 22.4998 3.36032 22.4208 3.21967 22.2801C3.07902 22.1394 3 21.9487 3 21.7498V12.7498C3 12.5509 2.92098 12.3601 2.78033 12.2194C2.63968 12.0788 2.44891 11.9998 2.25 11.9998C2.05109 11.9998 1.86032 12.0788 1.71967 12.2194C1.57902 12.3601 1.5 12.5509 1.5 12.7498V21.7498C1.5 22.3465 1.73705 22.9188 2.15901 23.3408C2.58097 23.7627 3.15326 23.9998 3.75 23.9998H20.25C20.8467 23.9998 21.419 23.7627 21.841 23.3408C22.2629 22.9188 22.5 22.3465 22.5 21.7498V10.1023L22.77 10.3273C22.9049 10.4391 23.0748 10.5001 23.25 10.4998C23.4044 10.5001 23.5552 10.4527 23.6817 10.3641C23.8082 10.2755 23.9043 10.15 23.9568 10.0048C24.0093 9.85957 24.0157 9.70166 23.9751 9.55266C23.9345 9.40365 23.8489 9.27081 23.73 9.17227ZM9 22.4998V14.2498C9 14.0509 9.07902 13.8601 9.21967 13.7194C9.36032 13.5788 9.55109 13.4998 9.75 13.4998H14.25C14.4489 13.4998 14.6397 13.5788 14.7803 13.7194C14.921 13.8601 15 14.0509 15 14.2498V22.4998H9Z" fill="#342F38"/>
<path d="M11.25 18.75C11.6642 18.75 12 18.4142 12 18C12 17.5858 11.6642 17.25 11.25 17.25C10.8358 17.25 10.5 17.5858 10.5 18C10.5 18.4142 10.8358 18.75 11.25 18.75Z" fill="#342F38"/>
</g>
<defs>
<clipPath id="clip0_9_102">
<rect width="24" height="24" fill="white"/>
</clipPath>
</defs>
</svg>
