<svg width="25" height="24" viewBox="0 0 25 24" fill="none" xmlns="http://www.w3.org/2000/svg">
<g clip-path="url(#clip0_3_278)">
<path d="M24.23 9.17227L20.375 5.96227V3.37477C20.375 3.17586 20.296 2.98509 20.1554 2.84444C20.0147 2.70379 19.8239 2.62477 19.625 2.62477C19.4261 2.62477 19.2353 2.70379 19.0947 2.84444C18.954 2.98509 18.875 3.17586 18.875 3.37477V4.70977L13.94 0.59977C13.5357 0.26302 13.0262 0.0786133 12.5 0.0786133C11.9739 0.0786133 11.4643 0.26302 11.06 0.59977L0.770024 9.17227C0.616861 9.29957 0.520543 9.48251 0.502258 9.68083C0.483973 9.87915 0.54522 10.0766 0.672524 10.2298C0.799827 10.3829 0.982761 10.4793 1.18108 10.4975C1.3794 10.5158 1.57686 10.4546 1.73002 10.3273L12.02 1.75102C12.1548 1.63877 12.3246 1.5773 12.5 1.5773C12.6754 1.5773 12.8453 1.63877 12.98 1.75102L21.5 8.84977V21.7498C21.5 21.9487 21.421 22.1394 21.2804 22.2801C21.1397 22.4208 20.9489 22.4998 20.75 22.4998H17V14.2498C17 13.653 16.763 13.0807 16.341 12.6588C15.9191 12.2368 15.3468 11.9998 14.75 11.9998H10.25C9.65329 11.9998 9.08099 12.2368 8.65903 12.6588C8.23708 13.0807 8.00002 13.653 8.00002 14.2498V22.4998H4.25002C4.05111 22.4998 3.86035 22.4208 3.71969 22.2801C3.57904 22.1394 3.50002 21.9487 3.50002 21.7498V12.7498C3.50002 12.5509 3.42101 12.3601 3.28035 12.2194C3.1397 12.0788 2.94894 11.9998 2.75002 11.9998C2.55111 11.9998 2.36035 12.0788 2.21969 12.2194C2.07904 12.3601 2.00002 12.5509 2.00002 12.7498V21.7498C2.00002 22.3465 2.23708 22.9188 2.65903 23.3408C3.08099 23.7627 3.65329 23.9998 4.25002 23.9998H20.75C21.3468 23.9998 21.9191 23.7627 22.341 23.3408C22.763 22.9188 23 22.3465 23 21.7498V10.1023L23.27 10.3273C23.405 10.4391 23.5748 10.5001 23.75 10.4998C23.9045 10.5001 24.0552 10.4527 24.1817 10.3641C24.3082 10.2755 24.4043 10.15 24.4568 10.0048C24.5093 9.85957 24.5157 9.70166 24.4751 9.55266C24.4345 9.40365 24.3489 9.27081 24.23 9.17227ZM9.50002 22.4998V14.2498C9.50002 14.0509 9.57904 13.8601 9.71969 13.7194C9.86035 13.5788 10.0511 13.4998 10.25 13.4998H14.75C14.9489 13.4998 15.1397 13.5788 15.2804 13.7194C15.421 13.8601 15.5 14.0509 15.5 14.2498V22.4998H9.50002Z" fill="white"/>
<path d="M11.75 18.75C12.1642 18.75 12.5 18.4142 12.5 18C12.5 17.5858 12.1642 17.25 11.75 17.25C11.3358 17.25 11 17.5858 11 18C11 18.4142 11.3358 18.75 11.75 18.75Z" fill="white"/>
</g>
<defs>
<clipPath id="clip0_3_278">
<rect width="24" height="24" fill="white" transform="translate(0.5)"/>
</clipPath>
</defs>
</svg>
