<svg width="24" height="24" viewBox="0 0 24 24" fill="none" xmlns="http://www.w3.org/2000/svg">
<g clip-path="url(#clip0_14_70)">
<path d="M2.79876 2.00969C2.79876 2.23049 2.61974 2.40951 2.39894 2.40951C2.17814 2.40951 1.99911 2.23049 1.99911 2.00969C1.99911 1.78889 2.17814 1.60986 2.39894 1.60986C2.61974 1.60986 2.79876 1.78889 2.79876 2.00969Z" fill="white"/>
<path d="M4.39807 2.00969C4.39807 2.23049 4.21904 2.40951 3.99824 2.40951C3.77744 2.40951 3.59842 2.23049 3.59842 2.00969C3.59842 1.78889 3.77744 1.60986 3.99824 1.60986C4.21904 1.60986 4.39807 1.78889 4.39807 2.00969Z" fill="white"/>
<path d="M5.99737 2.00969C5.99737 2.23049 5.81835 2.40951 5.59755 2.40951C5.37675 2.40951 5.19772 2.23049 5.19772 2.00969C5.19772 1.78889 5.37675 1.60986 5.59755 1.60986C5.81835 1.60986 5.99737 1.78889 5.99737 2.00969Z" fill="white"/>
<path d="M8.39631 1.60986C8.17551 1.60986 7.99649 1.78889 7.99649 2.00969C7.99649 2.23049 8.17551 2.40951 8.39631 2.40951H18.3919C18.6127 2.40951 18.7917 2.23049 18.7917 2.00969C18.7917 1.78889 18.6127 1.60986 18.3919 1.60986H8.39631Z" fill="white"/>
<path d="M5.76544 19.6021H0.799649V4.00899H18.3919C18.6127 4.00899 18.7917 3.82996 18.7917 3.60916C18.7917 3.38836 18.6127 3.20934 18.3919 3.20934H0.799649V0.810391H19.5914V5.77618C19.5914 5.99698 19.7704 6.176 19.9912 6.176C20.212 6.176 20.391 5.99698 20.391 5.77618V0.410566C20.391 0.189765 20.212 0.0107422 19.9912 0.0107422H0.399824C0.179023 0.0107422 0 0.189765 0 0.410566V20.002C0 20.2228 0.179023 20.4018 0.399824 20.4018H5.76544C5.98624 20.4018 6.16526 20.2228 6.16526 20.002C6.16526 19.7812 5.98624 19.6021 5.76544 19.6021Z" fill="white"/>
<path d="M23.8735 22.185L21.6745 20.002L22.962 19.1424C23.0945 19.0558 23.1636 18.899 23.1379 18.7426C23.1111 18.5868 22.9952 18.4615 22.8419 18.4226L17.4724 16.9953C17.335 16.9596 17.1891 16.9992 17.0888 17.0996C16.9884 17.1999 16.9488 17.3458 16.9845 17.4832L18.3919 22.8527C18.4308 23.006 18.5561 23.1219 18.7117 23.1487C18.8681 23.1744 19.025 23.1053 19.1115 22.9728L19.9912 21.6853L22.1902 23.8843C22.2656 23.9591 22.3679 24.0008 22.4741 24.0003C22.5803 24.0008 22.6826 23.9591 22.758 23.8843L23.8895 22.7528C23.9631 22.6756 24.0029 22.5722 23.9998 22.4656C23.9969 22.359 23.9514 22.2581 23.8735 22.185ZM22.4581 23.0366L20.195 20.7737C20.1206 20.6998 20.0201 20.6582 19.9153 20.6578H19.8752C19.7565 20.6699 19.6496 20.7343 19.5834 20.8337L18.9436 21.7893L17.9322 17.943L21.7785 18.9544L20.8229 19.6022C20.7235 19.6684 20.6591 19.7754 20.647 19.8941C20.636 20.0126 20.6786 20.1299 20.7629 20.2138L23.0258 22.4769L22.4581 23.0366Z" fill="white"/>
<path d="M16.6167 21.0054C15.7827 21.3517 14.8956 21.5532 13.9938 21.6012V18.0028C14.585 18.0167 15.175 18.0633 15.761 18.1428C15.9818 18.1736 16.186 18.0198 16.2169 17.799C16.2477 17.578 16.0939 17.374 15.8731 17.3431C15.2497 17.2615 14.6223 17.2149 13.9938 17.2031V14.0046H17.9921C17.9718 14.6316 17.9105 15.2567 17.8082 15.8758C17.7717 16.0966 17.9212 16.3051 18.142 16.3416C18.3628 16.3779 18.5713 16.2286 18.6078 16.0076C18.714 15.3448 18.7755 14.6755 18.7917 14.0046H21.5905C21.5489 14.9051 21.3543 15.792 21.0148 16.6274C20.932 16.8305 21.0283 17.0626 21.2307 17.1471C21.2787 17.1676 21.3303 17.1785 21.3826 17.1791C21.5464 17.1793 21.6938 17.0796 21.7545 16.9273C22.1815 15.8719 22.3974 14.7431 22.3902 13.6047C22.3911 11.5408 21.6633 9.54284 20.335 7.96326C18.6656 5.96609 16.1972 4.81094 13.594 4.80859H13.3061C11.3645 4.87224 9.49797 5.57505 7.99648 6.80772C7.82527 6.94789 7.80028 7.20032 7.94045 7.37153C8.08082 7.54255 8.33305 7.56773 8.50426 7.42737C9.19888 6.85594 9.98389 6.40457 10.8273 6.09201C10.1604 6.81767 9.63677 7.66281 9.284 8.58291C8.60227 8.38944 7.9344 8.15048 7.28488 7.86721C7.12635 7.80025 6.94265 7.84203 6.82902 7.97127C6.82902 7.97127 6.80892 7.97127 6.80091 7.99528C5.50734 9.57369 4.80081 11.5519 4.80179 13.5928C4.80198 15.6376 5.51769 17.6178 6.82492 19.1904L6.85304 19.2222C8.51578 21.2311 10.9862 22.396 13.594 22.4009C14.7338 22.4016 15.8626 22.1789 16.9166 21.7451C17.0575 21.6979 17.1606 21.5762 17.184 21.4294C17.2077 21.2826 17.1477 21.1348 17.0286 21.0458C16.9096 20.9568 16.7508 20.9413 16.6167 21.0054ZM13.1942 21.5653C11.9188 21.3613 10.7952 20.1659 10.0715 18.4065C11.0959 18.1656 12.1423 18.0301 13.1942 18.0028V21.5653ZM13.1942 17.2031C12.0478 17.2268 10.9071 17.3728 9.79178 17.6389C9.42339 16.4615 9.2227 15.238 9.19595 14.0046H13.1942V17.2031ZM5.61745 14.0046H8.3963C8.42129 15.3124 8.63136 16.6099 9.02005 17.8589C8.42754 18.0319 7.84557 18.2388 7.27687 18.4786C6.27809 17.1926 5.69886 15.6308 5.61745 14.0046ZM17.0925 8.80684C16.0757 9.04462 15.0375 9.17855 13.9938 9.20666V5.64826C15.2574 5.86008 16.3688 7.05956 17.0925 8.80684ZM13.1942 13.2049H9.19595C9.22094 11.967 9.423 10.7392 9.79569 9.55846C10.9093 9.82846 12.0486 9.97859 13.1942 10.0063V13.2049ZM13.9938 10.0063C15.1308 9.98191 16.262 9.83705 17.3683 9.57447C17.7397 10.7499 17.9415 11.9724 17.9681 13.2049H13.9938V10.0063ZM21.5905 13.2049H18.7917C18.7679 11.8986 18.5592 10.6023 18.1721 9.35464C18.773 9.18206 19.3632 8.97376 19.9393 8.73089C20.9351 10.0178 21.5114 11.5796 21.5905 13.2049ZM19.3915 8.09114C18.9036 8.28734 18.4058 8.45816 17.9001 8.60302C17.5495 7.67628 17.0228 6.82626 16.3489 6.10002C17.4946 6.52542 18.5284 7.20637 19.3716 8.09114H19.3915ZM13.1942 5.64416V9.20666C12.1423 9.1805 11.0961 9.04658 10.0715 8.80684C10.7952 7.04355 11.9188 5.84818 13.1942 5.64416ZM8.3963 13.2049H5.59753C5.68011 11.5802 6.25623 10.0196 7.24876 8.73089C7.81882 8.97063 8.40236 9.17757 8.99604 9.35054C8.61476 10.6006 8.4129 11.8983 8.3963 13.2049ZM7.81648 19.1183C8.29674 18.9254 8.78656 18.7573 9.284 18.6144C9.6356 19.5299 10.1565 20.3709 10.8193 21.0934C9.6809 20.6725 8.65381 19.9968 7.81648 19.1183Z" fill="white"/>
<path d="M22.822 9.75836C22.8833 9.90771 23.0284 10.0055 23.1898 10.0063C23.2423 10.0077 23.2943 9.99673 23.3417 9.97428C23.5441 9.88955 23.6404 9.65762 23.5576 9.45459C23.1461 8.45971 22.5852 7.53356 21.8943 6.70775C21.7477 6.57655 21.5273 6.57167 21.3748 6.69603C21.2225 6.82059 21.1833 7.03768 21.2826 7.20753C21.9216 7.97516 22.4407 8.83533 22.822 9.75836Z" fill="white"/>
<path d="M5.28966 6.70773C3.68002 8.64574 2.79896 11.0855 2.79877 13.6047C2.79877 13.8255 2.97779 14.0045 3.19859 14.0045C3.41939 14.0045 3.59842 13.8255 3.59842 13.6047C3.59607 11.2682 4.41232 9.00476 5.90541 7.20751C6.04675 7.03746 6.02352 6.78504 5.85348 6.64369C5.68344 6.50235 5.43101 6.52577 5.28966 6.69582V6.70773Z" fill="white"/>
</g>
<defs>
<clipPath id="clip0_14_70">
<rect width="24" height="24" fill="white"/>
</clipPath>
</defs>
</svg>
