<svg width="24" height="24" viewBox="0 0 24 24" fill="none" xmlns="http://www.w3.org/2000/svg">
<g clip-path="url(#clip0_12_239)">
<path d="M22.3878 6.00259C20.7858 3.22797 18.1993 1.24314 15.1045 0.413921C12.0098 -0.415391 8.77736 0.010187 6.00259 1.61223C3.22787 3.21423 1.24314 5.8008 0.41392 8.89558C-0.415299 11.9903 0.0102794 15.2228 1.61223 17.9974C3.21414 20.7721 5.80079 22.7569 8.89553 23.5861C9.92894 23.863 10.9776 24 12.0196 24C14.098 24 16.1493 23.4549 17.9975 22.3878C20.7721 20.7859 22.7569 18.1993 23.5862 15.1045C24.4154 12.0097 23.9897 8.77731 22.3878 6.00259ZM22.3795 14.7812C21.6366 17.5537 19.8586 19.871 17.3728 21.3061C14.8871 22.7413 11.9912 23.1225 9.21878 22.3797C6.44626 21.6368 4.12905 19.8587 2.69387 17.373C1.25875 14.8873 0.877514 11.9914 1.62044 9.21887C2.36336 6.44641 4.14142 4.12923 6.62715 2.69402C8.28301 1.738 10.1205 1.2497 11.9826 1.2497C12.9159 1.2497 13.8557 1.37242 14.7811 1.62044C17.5536 2.36331 19.8708 4.14137 21.306 6.62716C22.7411 9.11289 23.1224 12.0087 22.3795 14.7812Z" fill="url(#paint0_linear_12_239)"/>
<path d="M17.7552 10.8681L10.0431 6.41547C9.63379 6.17918 9.14517 6.17927 8.7359 6.41543C8.32663 6.65168 8.08228 7.07491 8.08228 7.54746V16.4528C8.08228 16.9253 8.32659 17.3485 8.7359 17.5848C8.94051 17.703 9.1649 17.762 9.38939 17.762C9.61392 17.762 9.8384 17.7028 10.043 17.5848L17.7553 13.1321C18.1645 12.8958 18.4087 12.4726 18.4087 12.0001C18.4087 11.5276 18.1644 11.1044 17.7552 10.8681ZM17.1306 12.0504L9.41835 16.503C9.40893 16.5085 9.38929 16.5198 9.36042 16.503C9.33145 16.4863 9.33145 16.4637 9.33145 16.4528V7.54751C9.33145 7.53663 9.33145 7.51404 9.36042 7.4973C9.37176 7.49074 9.38165 7.48849 9.39009 7.48849C9.40321 7.48849 9.41268 7.49397 9.41845 7.4973L17.1306 11.95C17.14 11.9554 17.1596 11.9667 17.1596 12.0002C17.1596 12.0336 17.1399 12.045 17.1306 12.0504Z" fill="url(#paint1_linear_12_239)"/>
<path d="M19.3736 6.30186C17.8882 4.38289 15.6552 3.09364 13.2471 2.76462C12.9057 2.71789 12.5904 2.95709 12.5437 3.29895C12.4971 3.64072 12.7363 3.95562 13.078 4.00236C15.1645 4.2874 17.0991 5.40434 18.3858 7.06653C18.5089 7.22553 18.6935 7.30878 18.8801 7.30878C19.0137 7.30878 19.1483 7.26617 19.262 7.17804C19.5347 6.96692 19.5847 6.57462 19.3736 6.30186Z" fill="url(#paint2_linear_12_239)"/>
</g>
<defs>
<linearGradient id="paint0_linear_12_239" x1="5.86672" y1="3.42617e-08" x2="17.6001" y2="24" gradientUnits="userSpaceOnUse">
<stop stop-color="#E3CE93"/>
<stop offset="1" stop-color="#F1DEA9"/>
</linearGradient>
<linearGradient id="paint1_linear_12_239" x1="10.6065" y1="6.23828" x2="16.6094" y2="17.2413" gradientUnits="userSpaceOnUse">
<stop stop-color="#E3CE93"/>
<stop offset="1" stop-color="#F1DEA9"/>
</linearGradient>
<linearGradient id="paint2_linear_12_239" x1="14.2408" y1="2.75879" x2="15.8744" y2="7.87467" gradientUnits="userSpaceOnUse">
<stop stop-color="#E3CE93"/>
<stop offset="1" stop-color="#F1DEA9"/>
</linearGradient>
<clipPath id="clip0_12_239">
<rect width="24" height="24" fill="white"/>
</clipPath>
</defs>
</svg>
