<svg width="28" height="28" viewBox="0 0 28 28" fill="none" xmlns="http://www.w3.org/2000/svg">
<circle cx="14" cy="14" r="14" fill="url(#paint0_linear_259_1140)"/>
<path d="M6.69844 13.3669L20.001 8.06489C20.6184 7.83432 21.1576 8.22059 20.9576 9.18567L20.9587 9.18448L18.6937 20.2151C18.5259 20.9972 18.0763 21.1874 17.4474 20.8189L13.9982 18.1911L12.3345 19.8479C12.1505 20.0381 11.9953 20.1985 11.6389 20.1985L11.8838 16.57L18.2764 10.6C18.5546 10.3469 18.2143 10.2042 17.8475 10.4562L9.94762 15.5977L6.54207 14.4995C5.80279 14.2571 5.78669 13.7353 6.69844 13.3669Z" fill="#1F1F1F"/>
<defs>
<linearGradient id="paint0_linear_259_1140" x1="6.84444" y1="3.99719e-08" x2="20.5333" y2="28" gradientUnits="userSpaceOnUse">
<stop stop-color="#E3CE93"/>
<stop offset="1" stop-color="#F1DEA9"/>
</linearGradient>
</defs>
</svg>
