<svg width="28" height="28" viewBox="0 0 28 28" fill="none" xmlns="http://www.w3.org/2000/svg">
<circle cx="14" cy="14" r="14" fill="url(#paint0_linear_259_1148)"/>
<path d="M22.1362 10.1015L22.1313 10.0818C21.7331 8.47204 19.9379 6.7447 18.2894 6.38534L18.2708 6.38151C15.6043 5.87283 12.9006 5.87283 10.2347 6.38151L10.2155 6.38534C8.56749 6.7447 6.77232 8.47204 6.37358 10.0818L6.36921 10.1015C5.87693 12.3495 5.87693 14.6293 6.36921 16.8774L6.37358 16.897C6.75531 18.4381 8.4168 20.0861 10.0038 20.5393V22.3362C10.0038 22.9865 10.7964 23.306 11.2471 22.8367L13.0677 20.9442C13.4626 20.9663 13.8576 20.9786 14.2527 20.9786C15.595 20.9786 16.9378 20.8517 18.2708 20.5974L18.2894 20.5935C19.9379 20.2342 21.7331 18.5068 22.1313 16.8971L22.1362 16.8774C22.6285 14.6293 22.6285 12.3495 22.1362 10.1015ZM20.6955 16.5514C20.4297 17.6016 19.0666 18.9072 17.9836 19.1484C16.5658 19.418 15.1368 19.5332 13.7092 19.4937C13.6808 19.4929 13.6535 19.5039 13.6337 19.5243C13.4311 19.7322 12.3044 20.8889 12.3044 20.8889L10.8905 22.34C10.7871 22.4477 10.6055 22.3744 10.6055 22.2257V19.2489C10.6055 19.1997 10.5704 19.158 10.5221 19.1485C10.5218 19.1484 10.5215 19.1484 10.5213 19.1483C9.43827 18.9071 8.07576 17.6015 7.80938 16.5513C7.36634 14.5193 7.36634 12.4594 7.80938 10.4274C8.07576 9.37722 9.43827 8.0716 10.5213 7.83039C12.9974 7.35944 15.508 7.35944 17.9836 7.83039C19.0672 8.0716 20.4297 9.37722 20.6955 10.4274C21.139 12.4595 21.139 14.5194 20.6955 16.5514Z" fill="#1F1F1F"/>
<path d="M16.6086 17.9255C16.4421 17.875 16.2834 17.841 16.1361 17.7798C14.6091 17.1463 13.2038 16.329 12.0907 15.0762C11.4577 14.3638 10.9622 13.5595 10.5434 12.7083C10.3448 12.3046 10.1775 11.8851 10.0069 11.4684C9.85129 11.0883 10.0804 10.6957 10.3217 10.4094C10.5481 10.1407 10.8394 9.935 11.1549 9.78343C11.4011 9.66512 11.644 9.73333 11.8239 9.94205C12.2127 10.3933 12.5698 10.8676 12.859 11.3907C13.0368 11.7124 12.988 12.1057 12.6657 12.3247C12.5874 12.3779 12.516 12.4403 12.4431 12.5005C12.3791 12.5531 12.3188 12.6064 12.275 12.6777C12.1948 12.8082 12.191 12.9621 12.2426 13.104C12.64 14.1962 13.3099 15.0455 14.4092 15.5029C14.5851 15.5761 14.7618 15.6613 14.9644 15.6377C15.3038 15.598 15.4137 15.2257 15.6515 15.0312C15.884 14.8412 16.1811 14.8387 16.4315 14.9971C16.6819 15.1556 16.9247 15.3258 17.1661 15.4978C17.403 15.6666 17.6388 15.8317 17.8573 16.0241C18.0674 16.2091 18.1398 16.4519 18.0215 16.703C17.8049 17.1629 17.4897 17.5455 17.0351 17.7897C16.9067 17.8586 16.7534 17.8809 16.6086 17.9255C16.7534 17.8809 16.4421 17.8749 16.6086 17.9255Z" fill="#1F1F1F"/>
<path d="M14.2569 9.25767C16.2541 9.31362 17.8946 10.6391 18.2461 12.6137C18.306 12.9501 18.3273 13.2941 18.354 13.6356C18.3652 13.7792 18.2838 13.9157 18.1288 13.9175C17.9687 13.9195 17.8967 13.7855 17.8863 13.6419C17.8657 13.3577 17.8515 13.0722 17.8123 12.7904C17.6055 11.3026 16.4192 10.0717 14.9382 9.80754C14.7154 9.76777 14.4873 9.75733 14.2616 9.73364C14.1189 9.71866 13.932 9.71001 13.9004 9.53263C13.8738 9.38391 13.9994 9.26549 14.141 9.25789C14.1795 9.25575 14.2182 9.2575 14.2569 9.25767C16.2541 9.31362 14.2182 9.2575 14.2569 9.25767Z" fill="#1F1F1F"/>
<path d="M17.2921 13.1923C17.2889 13.2172 17.2871 13.2759 17.2725 13.3311C17.2195 13.5316 16.9155 13.5567 16.8455 13.3544C16.8247 13.2943 16.8216 13.226 16.8215 13.1613C16.8208 12.7383 16.7289 12.3157 16.5155 11.9477C16.2963 11.5694 15.9612 11.2514 15.5683 11.0589C15.3307 10.9426 15.0737 10.8703 14.8133 10.8272C14.6995 10.8084 14.5845 10.7969 14.4701 10.781C14.3315 10.7618 14.2575 10.6734 14.264 10.5369C14.2702 10.4089 14.3637 10.3168 14.5032 10.3247C14.9615 10.3507 15.4043 10.4498 15.8118 10.6656C16.6404 11.1044 17.1138 11.7971 17.2519 12.722C17.2582 12.7639 17.2682 12.8054 17.2714 12.8475C17.2792 12.9514 17.2841 13.0553 17.2921 13.1923C17.2889 13.2172 17.2841 13.0553 17.2921 13.1923Z" fill="#1F1F1F"/>
<path d="M16.0499 13.144C15.8828 13.147 15.7933 13.0545 15.7761 12.9013C15.7641 12.7945 15.7547 12.6863 15.7292 12.5823C15.679 12.3777 15.5702 12.188 15.398 12.0625C15.3167 12.0033 15.2246 11.9601 15.1281 11.9323C15.0055 11.8969 14.8782 11.9067 14.7559 11.8767C14.6231 11.8441 14.5497 11.7366 14.5706 11.612C14.5895 11.4986 14.6999 11.4101 14.8238 11.4191C15.5981 11.475 16.1515 11.8753 16.2305 12.7869C16.2361 12.8512 16.2427 12.9192 16.2284 12.9807C16.2039 13.0861 16.1259 13.1389 16.0499 13.144C16.1259 13.1389 15.8828 13.147 16.0499 13.144Z" fill="#1F1F1F"/>
<defs>
<linearGradient id="paint0_linear_259_1148" x1="6.84444" y1="3.99719e-08" x2="20.5333" y2="28" gradientUnits="userSpaceOnUse">
<stop stop-color="#E3CE93"/>
<stop offset="1" stop-color="#F1DEA9"/>
</linearGradient>
</defs>
</svg>
