<svg width="32" height="32" viewBox="0 0 32 32" fill="none" xmlns="http://www.w3.org/2000/svg">
<path d="M28.833 26.5002H25C24.7891 25.7785 24.35 25.1447 23.7484 24.6937C23.1469 24.2428 22.4153 23.999 21.6635 23.999C20.9117 23.999 20.1801 24.2428 19.5786 24.6937C18.977 25.1447 18.5379 25.7785 18.327 26.5002L2 26.5002C1.73478 26.5002 1.48043 26.6055 1.29289 26.7931C1.10536 26.9806 1 27.235 1 27.5002C1 27.7654 1.10536 28.0197 1.29289 28.2073C1.48043 28.3948 1.73478 28.5002 2 28.5002L18.33 28.5002C18.5417 29.2206 18.981 29.8531 19.5822 30.3031C20.1834 30.753 20.9141 30.9962 21.665 30.9962C22.4159 30.9962 23.1466 30.753 23.7478 30.3031C24.349 29.8531 24.7883 29.2206 25 28.5002H28.83C29.0952 28.5002 29.3496 28.3948 29.5371 28.2073C29.7246 28.0197 29.83 27.7654 29.83 27.5002C29.83 27.235 29.7246 26.9806 29.5371 26.7931C29.3496 26.6055 29.0952 26.5002 28.83 26.5002H28.833ZM21.667 29.0002C21.3703 29.0002 21.0803 28.9122 20.8336 28.7474C20.587 28.5825 20.3947 28.3483 20.2812 28.0742C20.1677 27.8001 20.1379 27.4985 20.1958 27.2075C20.2537 26.9166 20.3966 26.6493 20.6063 26.4395C20.8161 26.2297 21.0834 26.0869 21.3744 26.029C21.6653 25.9711 21.9669 26.0008 22.241 26.1143C22.5151 26.2279 22.7494 26.4201 22.9142 26.6668C23.079 26.9135 23.167 27.2035 23.167 27.5002C23.167 27.898 23.009 28.2795 22.7277 28.5608C22.4464 28.8421 22.0648 29.0002 21.667 29.0002Z" fill="black"/>
<path d="M27.86 1L4.14 1C3.30746 1.00079 2.50925 1.33187 1.92056 1.92056C1.33187 2.50925 1.00079 3.30746 1 4.14L1 19.86C1.00079 20.6925 1.33187 21.4907 1.92056 22.0794C2.50925 22.6681 3.30746 22.9992 4.14 23L27.86 23C28.6925 22.9992 29.4907 22.6681 30.0794 22.0794C30.6681 21.4907 30.9992 20.6925 31 19.86L31 4.14C30.9992 3.30746 30.6681 2.50925 30.0794 1.92056C29.4907 1.33187 28.6925 1.00079 27.86 1ZM29 19.86C28.9997 20.1623 28.8795 20.4521 28.6658 20.6658C28.4521 20.8795 28.1623 20.9997 27.86 21L4.14 21C3.83773 20.9997 3.54792 20.8795 3.33419 20.6658C3.12046 20.4521 3.00026 20.1623 3 19.86L3 4.14C3.00026 3.83773 3.12046 3.54792 3.33419 3.33419C3.54792 3.12046 3.83773 3.00026 4.14 3L27.86 3C28.1623 3.00026 28.4521 3.12046 28.6658 3.33419C28.8795 3.54792 28.9997 3.83773 29 4.14L29 19.86Z" fill="black"/>
<path d="M21.53 11.152L13.53 6.152C13.3786 6.05739 13.2047 6.00503 13.0262 6.00034C12.8478 5.99566 12.6714 6.03882 12.5152 6.12536C12.3591 6.21189 12.229 6.33864 12.1384 6.49244C12.0478 6.64625 12 6.8215 12 7L12 17C12 17.1785 12.0478 17.3538 12.1384 17.5076C12.229 17.6614 12.3591 17.7881 12.5152 17.8746C12.6714 17.9612 12.8478 18.0043 13.0262 17.9997C13.2047 17.995 13.3786 17.9426 13.53 17.848L21.53 12.848C21.6747 12.7583 21.7941 12.6332 21.8769 12.4844C21.9598 12.3357 22.0032 12.1682 22.0032 11.998C22.0032 11.8278 21.9598 11.6603 21.8769 11.5116C21.7941 11.3628 21.6747 11.2377 21.53 11.148V11.152ZM14 15.2L14 8.8L19.113 12L14 15.2Z" fill="black"/>
</svg>
