<svg width="28" height="28" viewBox="0 0 28 28" fill="none" xmlns="http://www.w3.org/2000/svg">
<circle cx="14" cy="14" r="14" fill="url(#paint0_linear_259_1143)"/>
<path d="M6 22.0185L7.19059 17.7899C6.42497 16.4892 6.02187 15.0093 6.02187 13.4891C6.02187 8.80819 9.83006 5 14.511 5C19.1919 5 23 8.80819 23 13.4891C23 18.17 19.1919 21.9782 14.511 21.9782C13.0524 21.9782 11.6242 21.6048 10.3608 20.8959L6 22.0185ZM10.5837 19.3515L10.8436 19.5102C11.9451 20.1827 13.2133 20.5382 14.511 20.5382C18.3978 20.5382 21.56 17.376 21.56 13.4891C21.56 9.60223 18.3978 6.44003 14.511 6.44003C10.6241 6.44003 7.4619 9.60223 7.4619 13.4891C7.4619 14.8434 7.84681 16.1586 8.57494 17.2924L8.74993 17.5649L8.06431 20.0001L10.5837 19.3515Z" fill="#1F1F1F"/>
<path d="M12.1263 9.53786L11.5754 9.50783C11.4024 9.49839 11.2327 9.55621 11.1019 9.66981C10.8349 9.90171 10.4079 10.35 10.2767 10.9343C10.0811 11.8054 10.3834 12.8721 11.1657 13.9388C11.9479 15.0054 13.4057 16.7122 15.9835 17.4411C16.8142 17.676 17.4677 17.5176 17.9718 17.1951C18.3711 16.9397 18.6464 16.5297 18.7456 16.0662L18.8336 15.6554C18.8615 15.5249 18.7952 15.3924 18.6739 15.3365L16.8123 14.4784C16.6914 14.4227 16.5481 14.4579 16.4668 14.5633L15.736 15.5107C15.6808 15.5823 15.5863 15.6106 15.5009 15.5807C15.0005 15.4048 13.3239 14.7026 12.404 12.9306C12.3641 12.8538 12.3741 12.7605 12.4306 12.6949L13.1291 11.8869C13.2005 11.8044 13.2185 11.6884 13.1756 11.5881L12.3731 9.71072C12.3304 9.61077 12.2347 9.54378 12.1263 9.53786Z" fill="#1F1F1F"/>
<defs>
<linearGradient id="paint0_linear_259_1143" x1="6.84444" y1="3.99719e-08" x2="20.5333" y2="28" gradientUnits="userSpaceOnUse">
<stop stop-color="#E3CE93"/>
<stop offset="1" stop-color="#F1DEA9"/>
</linearGradient>
</defs>
</svg>
